<?xml version="1.0" encoding="utf-8"?>
<!-- Generator: Adobe Illustrator 24.2.3, SVG Export Plug-In . SVG Version: 6.00 Build 0)  -->
<svg version="1.1" id="Layer_1" xmlns="http://www.w3.org/2000/svg" xmlns:xlink="http://www.w3.org/1999/xlink" x="0px" y="0px"
	 viewBox="0 0 417.5 91" style="enable-background:new 0 0 417.5 91;" xml:space="preserve">
<style type="text/css">
	.st0{fill:#6a6c70;}
	.st1{fill:#50BAA2;}
	.st2{fill:#8B9638;}
	.st3{fill:#593C1B;}
	.st4{fill:#F6B518;}
	.st5{fill:#D15941;}
</style>
<g>
	<g>
		<path class="st0" d="M132.5,53.5c-0.5,2.6-1.3,5-2.4,7.1c-1.1,2.1-2.5,3.9-4.2,5.4c-1.7,1.5-3.6,2.7-5.8,3.5
			c-2.2,0.8-4.6,1.2-7.3,1.2c-3,0-5.8-0.5-8.3-1.5c-2.6-1-4.8-2.5-6.7-4.5c-1.9-2-3.4-4.5-4.4-7.5c-1.1-3-1.6-6.4-1.6-10.3
			c0-3.8,0.5-7.3,1.5-10.4c1-3.1,2.4-5.7,4.2-7.8c1.8-2.1,4.1-3.8,6.7-4.9c2.6-1.1,5.6-1.7,8.8-1.7c2.8,0,5.4,0.4,7.7,1.3
			c2.3,0.8,4.3,2,6,3.5c1.7,1.5,3,3.2,4,5.3c1,2,1.6,4.2,1.8,6.5h-9.5c-0.6-2.6-1.9-4.6-3.7-6.1c-1.8-1.4-3.9-2.2-6.2-2.2
			c-4,0-6.9,1.4-8.8,4.3c-1.9,2.9-2.8,6.8-2.8,11.8c0,5.1,0.9,9,2.8,11.9c1.9,2.8,4.6,4.2,8.3,4.2c2.8,0,5.1-0.8,6.8-2.3
			c1.7-1.5,2.9-3.7,3.5-6.6H132.5z"/>
		<path class="st0" d="M151.2,70.1c-2.7,0-5.2-0.4-7.4-1.3c-2.2-0.9-4-2.1-5.5-3.6c-1.5-1.6-2.6-3.4-3.4-5.6
			c-0.8-2.2-1.2-4.6-1.2-7.2c0-2.7,0.4-5.1,1.2-7.3c0.8-2.2,2-4.1,3.5-5.6c1.5-1.6,3.3-2.8,5.5-3.6c2.1-0.8,4.5-1.3,7.2-1.3
			c2.7,0,5,0.4,7.1,1.3c2.1,0.8,3.9,2,5.4,3.6c1.5,1.5,2.6,3.4,3.4,5.6c0.8,2.2,1.2,4.6,1.2,7.4c0,2.7-0.4,5.1-1.2,7.3
			c-0.8,2.2-1.9,4-3.4,5.6c-1.5,1.6-3.3,2.8-5.4,3.6C156.2,69.7,153.8,70.1,151.2,70.1z M151.2,62.6c5.4,0,8.2-3.4,8.2-10.3
			c0-6.8-2.7-10.2-8.2-10.2c-5.5,0-8.2,3.4-8.2,10.2C143,59.2,145.8,62.6,151.2,62.6z"/>
		<path class="st0" d="M193.3,69.2V48.7c0-2.6-0.4-4.4-1.3-5.3c-0.9-0.9-2.4-1.4-4.5-1.4c-4.6,0-6.9,2.6-6.9,7.8v19.4h-8.9V35.4h8.5
			v4.9c1.1-1.9,2.4-3.4,4.2-4.4c1.7-1,4-1.5,6.7-1.5c1.6,0,3.1,0.2,4.5,0.7c1.4,0.5,2.6,1.2,3.5,2.2c1,1,1.8,2.1,2.3,3.5
			c0.6,1.4,0.9,3,0.9,4.8v23.4H193.3z"/>
		<path class="st0" d="M225.3,46.9h8.3v9.6c0,1.8-0.3,3.5-0.8,5.1c-0.5,1.6-1.4,3.1-2.5,4.3c-1.1,1.3-2.5,2.3-4.3,3
			c-1.7,0.7-3.8,1.1-6.1,1.1c-2.5,0-4.6-0.4-6.3-1.1c-1.7-0.7-3.2-1.7-4.3-3c-1.1-1.2-1.9-2.7-2.4-4.3c-0.5-1.6-0.8-3.4-0.8-5.2
			V26.2h8.8v9.1h18.7v6.3H215v13.9c0,2.2,0.4,3.8,1.2,5c0.8,1.2,2.1,1.8,4,1.8c1.8,0,3.1-0.6,4-1.7c0.8-1.1,1.3-2.8,1.3-4.9V46.9z"
			/>
		<path class="st0" d="M237.5,31.3V23h8.9v8.3H237.5z M237.5,69.2V35.4h8.9v33.8H237.5z"/>
		<path class="st0" d="M272.1,69.2V48.7c0-2.6-0.4-4.4-1.3-5.3c-0.9-0.9-2.4-1.4-4.5-1.4c-4.6,0-6.9,2.6-6.9,7.8v19.4h-8.9V35.4h8.5
			v4.9c1.1-1.9,2.4-3.4,4.2-4.4c1.7-1,4-1.5,6.7-1.5c1.6,0,3.1,0.2,4.5,0.7c1.4,0.5,2.6,1.2,3.5,2.2c1,1,1.8,2.1,2.3,3.5
			c0.6,1.4,0.9,3,0.9,4.8v23.4H272.1z"/>
		<path class="st0" d="M293.2,54.6c0.1,2.6,0.9,4.6,2.2,6.1c1.4,1.5,3.1,2.3,5.3,2.3c1.5,0,2.8-0.3,3.9-1c1.1-0.7,1.8-1.6,2.2-2.8
			h9.2c-1.1,3.5-2.9,6.2-5.5,8c-2.6,1.9-5.7,2.8-9.3,2.8c-11.3,0-16.9-6.1-16.9-18.4c0-2.6,0.4-5,1.1-7.1c0.7-2.1,1.8-3.9,3.2-5.4
			c1.4-1.5,3.1-2.7,5.1-3.5c2-0.8,4.3-1.2,6.9-1.2c5.2,0,9.2,1.7,11.9,5c2.7,3.3,4,8.4,4,15.1H293.2z M307.3,49
			c0-1.2-0.3-2.3-0.7-3.3c-0.4-0.9-0.9-1.7-1.5-2.3c-0.6-0.6-1.4-1.1-2.2-1.4c-0.8-0.3-1.7-0.4-2.5-0.4c-1.8,0-3.3,0.7-4.6,2
			c-1.3,1.3-2.1,3.1-2.2,5.5H307.3z"/>
		<path class="st0" d="M341.2,69.2V48.7c0-2.6-0.4-4.4-1.3-5.3c-0.9-0.9-2.4-1.4-4.5-1.4c-4.6,0-6.9,2.6-6.9,7.8v19.4h-8.9V35.4h8.5
			v4.9c1.1-1.9,2.4-3.4,4.2-4.4c1.7-1,4-1.5,6.7-1.5c1.6,0,3.1,0.2,4.5,0.7c1.4,0.5,2.6,1.2,3.5,2.2c1,1,1.8,2.1,2.3,3.5
			c0.6,1.4,0.9,3,0.9,4.8v23.4H341.2z"/>
		<path class="st0" d="M373.3,46.9h8.3v9.6c0,1.8-0.3,3.5-0.8,5.1c-0.5,1.6-1.4,3.1-2.5,4.3c-1.1,1.3-2.5,2.3-4.3,3
			c-1.7,0.7-3.8,1.1-6.1,1.1c-2.5,0-4.6-0.4-6.3-1.1c-1.7-0.7-3.2-1.7-4.3-3c-1.1-1.2-1.9-2.7-2.4-4.3c-0.5-1.6-0.8-3.4-0.8-5.2
			V26.2h8.8v9.1h18.7v6.3h-18.7v13.9c0,2.2,0.4,3.8,1.2,5c0.8,1.2,2.1,1.8,4,1.8c1.8,0,3.1-0.6,4-1.7c0.8-1.1,1.3-2.8,1.3-4.9V46.9z
			"/>
		<path class="st0" d="M405.6,45.6c-0.2-1.6-0.8-2.8-1.8-3.5c-1-0.7-2.5-1-4.5-1c-1.7,0-3,0.2-3.9,0.7c-0.9,0.4-1.4,1.2-1.4,2.2
			c0,1,0.5,1.8,1.4,2.3c0.9,0.5,2.3,1,4.1,1.5c1.9,0.5,3.8,1,5.5,1.5c1.7,0.4,3.3,0.9,4.6,1.4c1.8,0.7,3.2,1.7,4.1,3
			c1,1.3,1.4,3,1.4,5.2c0,3.5-1.2,6.3-3.7,8.2c-2.5,2-6.2,3-11,3c-5.2,0-9.2-1.1-12-3.3c-2.8-2.2-4.2-5-4.3-8.5h9.2
			c0,1.6,0.6,2.8,1.9,3.7c1.2,0.9,3,1.3,5.2,1.3c1.6,0,3-0.3,4.2-0.8c1.2-0.5,1.8-1.4,1.8-2.7c0-1.2-0.5-2-1.6-2.5
			c-1.1-0.5-2.3-0.9-3.8-1.3c-2.8-0.7-5.1-1.3-6.9-1.9c-1.7-0.6-3.2-1.2-4.4-2c-1.6-1-2.7-2.2-3.3-3.4c-0.6-1.3-0.9-2.7-0.9-4.2
			c0-1.4,0.3-2.7,0.8-4c0.5-1.2,1.3-2.3,2.5-3.2c1.1-0.9,2.6-1.6,4.4-2.1c1.8-0.5,4-0.8,6.6-0.8c4.9,0,8.5,0.9,10.8,2.8
			c2.3,1.9,3.6,4.6,3.8,8.3H405.6z"/>
	</g>
	<g>
		<path class="st1" d="M24.6,19.5c7.2-0.9,10.5-3,13.9-5.1c3.7-2.3,7.5-4.7,15.6-5.7C56.8,8.3,59,8.2,61,8.3
			c-5.9-3.6-12.8-5.8-20.2-5.8c-12.6,0-23.9,6.1-30.9,15.5C13.8,19.3,17.5,20.4,24.6,19.5z"/>
		<path class="st2" d="M28.3,32.5c6.4,0.7,9.8-0.5,13.3-1.8c3.8-1.4,7.8-2.9,15.2-2.1c7.4,0.8,10.9,3.1,14.4,5.4
			c2.3,1.5,4.4,2.9,7.9,3.8c-0.8-9.4-4.9-17.9-11.3-24.1c-3.4-1-7-1.7-13.1-0.9c-7.2,0.9-10.5,3-13.9,5.1c-3.7,2.3-7.5,4.7-15.6,5.7
			c-2,0.3-3.8,0.4-5.4,0.4c-4.8,0-8-1-11.2-2c-0.3-0.1-0.7-0.2-1-0.3c-0.3,0.6-0.6,1.1-0.9,1.7c4.1,1.1,6.6,2.8,9.1,4.4
			C18.9,29.8,21.8,31.8,28.3,32.5z"/>
		<path class="st3" d="M24.6,53.5c7.2-0.9,10.5-3,13.9-5.1c3.7-2.3,7.5-4.7,15.6-5.7c8.1-1,12.4,0.3,16.5,1.6
			c2.5,0.8,4.9,1.5,8.2,1.7c0.2-1.3,0.3-2.6,0.3-3.9c-4.7-1.1-7.5-2.9-10.2-4.7c-3.2-2.1-6.1-4-12.6-4.7c-6.4-0.7-9.8,0.5-13.3,1.8
			c-3.8,1.4-7.8,2.9-15.2,2.1c-7.4-0.8-10.9-3.1-14.4-5.4c-2.4-1.6-4.7-3.1-8.6-4C3.3,31.5,2.3,36.1,2.3,41c0,3.3,0.4,6.4,1.2,9.5
			c2.4,0.4,4.3,1,6.3,1.6C13.7,53.2,17.4,54.4,24.6,53.5z"/>
		<path class="st4" d="M42.1,67.8c-3.8,1.4-7.8,2.9-15.2,2.1C19.6,69,16,66.7,12.6,64.5c-1.2-0.8-2.5-1.6-3.9-2.3
			c6.9,10.4,18.6,17.2,32,17.2c9.8,0,18.8-3.7,25.6-9.8c-2.6-1.6-5.6-3-10.9-3.6C49,65.2,45.7,66.5,42.1,67.8z"/>
		<path class="st5" d="M69.4,48.1c-3.9-1.2-7.6-2.4-14.8-1.5c-7.2,0.9-10.5,3-13.9,5.1c-3.7,2.3-7.5,4.7-15.6,5.7
			c-2,0.3-3.8,0.4-5.4,0.4c-4.8,0-8-1-11.2-2c-1.2-0.4-2.4-0.7-3.6-1c0.2,0.6,0.5,1.2,0.7,1.8c4.1,1.1,6.6,2.8,9.1,4.4
			c3.2,2.1,6.1,4,12.6,4.7c6.4,0.7,9.8-0.5,13.3-1.8c3.8-1.4,7.8-2.9,15.2-2.1c6.7,0.8,10.3,2.7,13.4,4.7c4.2-4.7,7.2-10.3,8.8-16.6
			C74.6,49.7,72,48.9,69.4,48.1z"/>
	</g>
	<g>
		<path class="st0" d="M224.9,88.2H224v-8.9h2.8c0.9,0,1.6,0.2,2.2,0.6c0.5,0.4,0.8,1,0.8,1.8c0,0.6-0.2,1.1-0.6,1.6
			c-0.4,0.4-1,0.7-1.7,0.7l2.6,4.2h-1.1l-2.4-4.2h-1.5V88.2z M224.9,83.2h1.6c0.4,0,0.7,0,1-0.1c0.3-0.1,0.5-0.2,0.7-0.3
			c0.2-0.1,0.3-0.3,0.4-0.5c0.1-0.2,0.1-0.4,0.1-0.6c0-0.2,0-0.4-0.1-0.6c-0.1-0.2-0.2-0.4-0.4-0.5c-0.2-0.1-0.4-0.3-0.7-0.3
			c-0.3-0.1-0.6-0.1-1-0.1h-1.6V83.2z"/>
		<path class="st0" d="M233.2,87.3h4.8v0.8h-5.7v-8.9h5.5V80h-4.6v3h4.3v0.8h-4.3V87.3z"/>
		<path class="st0" d="M240.4,88.2h-1.1l3.9-8.9h0.9l3.9,8.9h-1.1l-1-2.3h-4.6L240.4,88.2z M241.7,85h3.9l-1.9-4.7L241.7,85z"/>
		<path class="st0" d="M250.8,87.3h4.2v0.8h-5.1v-8.9h0.9V87.3z"/>
		<path class="st0" d="M262.2,87.3h4.8v0.8h-5.7v-8.9h5.5V80h-4.6v3h4.3v0.8h-4.3V87.3z"/>
		<path class="st0" d="M273.8,80.7c-0.4-0.6-1-0.9-1.7-0.9c-0.2,0-0.5,0-0.7,0.1c-0.2,0.1-0.4,0.2-0.6,0.3s-0.3,0.3-0.4,0.5
			c-0.1,0.2-0.2,0.4-0.2,0.7c0,0.4,0.1,0.7,0.3,0.9c0.2,0.2,0.5,0.4,0.8,0.6c0.3,0.1,0.7,0.3,1.1,0.4c0.4,0.1,0.8,0.3,1.1,0.5
			c0.3,0.2,0.6,0.4,0.8,0.8c0.2,0.3,0.3,0.7,0.3,1.3c0,0.4-0.1,0.8-0.3,1.1c-0.2,0.3-0.4,0.6-0.7,0.8c-0.3,0.2-0.6,0.4-0.9,0.5
			c-0.3,0.1-0.7,0.2-1.1,0.2c-0.5,0-1.1-0.1-1.6-0.3c-0.5-0.2-0.9-0.5-1.3-1l0.8-0.6c0.2,0.3,0.5,0.6,0.8,0.8
			c0.3,0.2,0.8,0.3,1.2,0.3c0.2,0,0.5,0,0.7-0.1c0.2-0.1,0.4-0.2,0.6-0.3c0.2-0.1,0.3-0.3,0.4-0.5c0.1-0.2,0.2-0.4,0.2-0.7
			c0-0.3-0.1-0.6-0.2-0.8c-0.1-0.2-0.3-0.4-0.5-0.5c-0.2-0.1-0.5-0.3-0.7-0.3c-0.3-0.1-0.6-0.2-0.8-0.3c-0.3-0.1-0.6-0.2-0.8-0.3
			c-0.3-0.1-0.5-0.3-0.7-0.4s-0.4-0.4-0.5-0.7c-0.1-0.3-0.2-0.6-0.2-1c0-0.4,0.1-0.8,0.2-1.1c0.2-0.3,0.4-0.6,0.7-0.8
			c0.3-0.2,0.6-0.4,0.9-0.5c0.3-0.1,0.7-0.2,1.1-0.2c0.5,0,1,0.1,1.4,0.2c0.4,0.2,0.8,0.4,1.1,0.8L273.8,80.7z"/>
		<path class="st0" d="M280.2,88.2h-0.9V80h-3v-0.8h6.9V80h-3V88.2z"/>
		<path class="st0" d="M284.3,88.2h-1.1l3.9-8.9h0.9l3.9,8.9h-1.1l-1-2.3h-4.6L284.3,88.2z M285.6,85h3.9l-1.9-4.7L285.6,85z"/>
		<path class="st0" d="M295.9,88.2H295V80h-3v-0.8h6.9V80h-3V88.2z"/>
		<path class="st0" d="M301.9,87.3h4.8v0.8H301v-8.9h5.5V80h-4.6v3h4.3v0.8h-4.3V87.3z"/>
		<path class="st0" d="M313.4,79.2h3c0.6,0,1.1,0.1,1.7,0.3c0.6,0.2,1.1,0.5,1.5,0.8c0.5,0.4,0.8,0.8,1.1,1.4c0.3,0.6,0.4,1.2,0.4,2
			c0,0.8-0.1,1.4-0.4,2c-0.3,0.6-0.6,1-1.1,1.4c-0.5,0.4-1,0.7-1.5,0.8c-0.6,0.2-1.1,0.3-1.7,0.3h-3V79.2z M314.3,87.3h1.8
			c0.7,0,1.3-0.1,1.8-0.3c0.5-0.2,0.9-0.5,1.3-0.8c0.3-0.3,0.6-0.7,0.7-1.2c0.2-0.4,0.2-0.9,0.2-1.3c0-0.5-0.1-0.9-0.2-1.3
			c-0.2-0.4-0.4-0.8-0.7-1.2c-0.3-0.3-0.7-0.6-1.3-0.8c-0.5-0.2-1.1-0.3-1.8-0.3h-1.8V87.3z"/>
		<path class="st0" d="M324.6,87.3h4.8v0.8h-5.7v-8.9h5.5V80h-4.6v3h4.3v0.8h-4.3V87.3z"/>
		<path class="st0" d="M334.5,86.8L334.5,86.8l3-7.6h1l-3.5,8.9h-0.9l-3.4-8.9h1L334.5,86.8z"/>
		<path class="st0" d="M341.3,87.3h4.8v0.8h-5.7v-8.9h5.5V80h-4.6v3h4.3v0.8h-4.3V87.3z"/>
		<path class="st0" d="M349.5,87.3h4.2v0.8h-5.1v-8.9h0.9V87.3z"/>
		<path class="st0" d="M364.4,83.7c0,0.7-0.1,1.3-0.4,1.9c-0.2,0.6-0.6,1.1-1,1.5c-0.4,0.4-0.9,0.7-1.5,1c-0.6,0.2-1.2,0.4-1.9,0.4
			c-0.7,0-1.3-0.1-1.9-0.4c-0.6-0.2-1.1-0.6-1.5-1c-0.4-0.4-0.7-0.9-1-1.5c-0.2-0.6-0.4-1.2-0.4-1.9c0-0.7,0.1-1.3,0.4-1.9
			c0.2-0.6,0.6-1.1,1-1.5c0.4-0.4,0.9-0.7,1.5-1c0.6-0.2,1.2-0.4,1.9-0.4c0.7,0,1.3,0.1,1.9,0.4c0.6,0.2,1.1,0.6,1.5,1
			c0.4,0.4,0.7,0.9,1,1.5C364.3,82.4,364.4,83,364.4,83.7z M363.4,83.7c0-0.5-0.1-1-0.3-1.5c-0.2-0.5-0.4-0.9-0.7-1.2
			c-0.3-0.4-0.7-0.6-1.2-0.8c-0.5-0.2-1-0.3-1.5-0.3c-0.6,0-1.1,0.1-1.5,0.3c-0.5,0.2-0.8,0.5-1.2,0.8c-0.3,0.4-0.6,0.8-0.7,1.2
			c-0.2,0.5-0.3,1-0.3,1.5c0,0.5,0.1,1,0.3,1.5c0.2,0.5,0.4,0.9,0.7,1.2c0.3,0.4,0.7,0.6,1.2,0.8c0.5,0.2,1,0.3,1.5,0.3
			c0.6,0,1.1-0.1,1.5-0.3c0.5-0.2,0.8-0.5,1.2-0.8c0.3-0.4,0.6-0.8,0.7-1.2C363.3,84.7,363.4,84.2,363.4,83.7z"/>
		<path class="st0" d="M367,79.2h2.6c0.9,0,1.6,0.2,2.2,0.6c0.5,0.4,0.8,1,0.8,1.8c0,0.8-0.3,1.4-0.8,1.8c-0.5,0.4-1.2,0.6-2.2,0.6
			h-1.7v4.2H367V79.2z M367.9,83.2h1.5c0.4,0,0.7,0,1-0.1c0.3-0.1,0.5-0.2,0.7-0.3c0.2-0.1,0.3-0.3,0.4-0.5c0.1-0.2,0.1-0.4,0.1-0.6
			c0-0.2,0-0.4-0.1-0.6c-0.1-0.2-0.2-0.4-0.4-0.5c-0.2-0.1-0.4-0.3-0.7-0.3c-0.3-0.1-0.6-0.1-1-0.1h-1.5V83.2z"/>
		<path class="st0" d="M379.4,86.5l3-7.3h1.4v8.9h-0.9v-7.7h0l-3.2,7.7h-0.5l-3.2-7.7h0v7.7H375v-8.9h1.4L379.4,86.5z"/>
		<path class="st0" d="M387.9,87.3h4.8v0.8H387v-8.9h5.5V80h-4.6v3h4.3v0.8h-4.3V87.3z"/>
		<path class="st0" d="M401.7,86.8L401.7,86.8l0-7.6h0.9v8.9h-1.1l-5.3-7.7h0v7.7h-0.9v-8.9h1.1L401.7,86.8z"/>
		<path class="st0" d="M408.7,88.2h-0.9V80h-3v-0.8h6.9V80h-3V88.2z"/>
	</g>
</g>
</svg>
