<svg xmlns="http://www.w3.org/2000/svg" width="220.472" height="223.619" viewBox="0 0 220.472 223.619"><defs><style>.a{fill:#b7b1a5;}</style></defs><g transform="translate(0 223.619) rotate(-90)"><path class="a" d="M224.694,1896.633l-76.023-12.177a44.368,44.368,0,0,1-29.925-19.233l-14.63-21.988,25.968-4.806a44.365,44.365,0,0,1,34.642,8.083L226.4,1892.6A2.254,2.254,0,0,1,224.694,1896.633Z" transform="translate(-56.696 -1695.796)"/><path class="a" d="M203.741,1921.176l-65.581-40.334a44.365,44.365,0,0,1-20.295-29.218l-5.1-25.912,25.832,5.494a44.349,44.349,0,0,1,28.911,20.724l39.354,66.176A2.253,2.253,0,0,1,203.741,1921.176Z" transform="translate(-24.561 -1740.295)"/><path class="a" d="M178.2,1940.07l-45.07-62.422a44.394,44.394,0,0,1-7.523-34.769L130.84,1817l21.742,14.988a44.359,44.359,0,0,1,18.743,30.232l10.933,76.213A2.255,2.255,0,0,1,178.2,1940.07Z" transform="translate(19.906 -1772.687)"/><g transform="translate(30.782 29.098)"><circle class="a" cx="8.396" cy="8.396" r="8.396" transform="translate(0 146.549)"/><circle class="a" cx="8.396" cy="8.396" r="8.396" transform="translate(29.067 79.153)"/><circle class="a" cx="8.396" cy="8.396" r="8.396" transform="translate(81.376 27.611)"/><circle class="a" cx="8.396" cy="8.396" r="8.396" transform="translate(149.175)"/></g><path class="a" d="M234.192,1871.742a2.171,2.171,0,0,0-1.632-1.722l-74.613-18.983a44.372,44.372,0,0,0-35.1,5.782L100.7,1871.194l.387.26Z" transform="translate(-69.406 -1651.27)"/><path class="a" d="M158.65,1814.047l-14.357,21.474a44.382,44.382,0,0,0-6.259,35.015L156,1945.4a2.2,2.2,0,0,0,2.363,1.7Z" transform="translate(64.812 -1783.646)"/><path class="a" d="M317.679,1807.6c-87.116-.528-170.257,50.556-206.177,135.686a220.8,220.8,0,0,0-17.441,84.429l6.476.014a214.362,214.362,0,0,1,16.932-81.924c34.878-82.659,115.613-132.252,200.2-131.729Z" transform="translate(-94.061 -1807.601)"/></g></svg>