<svg xmlns="http://www.w3.org/2000/svg" width="73.11" height="82.731" viewBox="0 0 73.11 82.731"><defs><style>.a{fill:#579693;}.b{fill:#f7a719;}</style></defs><g transform="translate(-66.773 -3453.456)"><path class="a" d="M76.562,3511.774A31.719,31.719,0,0,1,94.01,3464.46l-2.288,3.583,4.087,2.61,6.7-10.495-10.5-6.7-2.61,4.087,3.445,2.2a36.563,36.563,0,0,0-5.585,67.872l2.132-4.354A31.794,31.794,0,0,1,76.562,3511.774Z" transform="translate(0 0)"/><path class="a" d="M123.945,3491.215a36.558,36.558,0,0,0-20.491-32.844l-2.134,4.355a31.717,31.717,0,0,1-4.612,58.8L99,3517.944l-4.087-2.609-6.7,10.495,10.5,6.7,2.61-4.087-3.445-2.2A36.592,36.592,0,0,0,123.945,3491.215Z" transform="translate(15.938 3.655)"/><path class="b" d="M108.967,3483.894H95.389l2.027-21.266L79.2,3492.477h13.46l-2.372,20.9Z" transform="translate(9.243 6.821)"/></g></svg>